/* XPM */
static char * move_end_back_noadjust_xpm[] = {
"36 36 5 1",
" 	c None",
"X	c #000000000000",
"o	c #FFFF00000000",
"O	c #0000FFFF0000",
"+	c #00000000FFFF",
"                                    ",
"                                    ",
"                                    ",
"                                    ",
"                                    ",
"                                    ",
"                                    ",
"XXXXXXXXXXXXXXXXXXXXXXXXXXXXXXXXXXXX",
"ooooooooXOOOOOOOOOOOOOOOOOOX++++++++",
"ooooooooXOOOOOOOOOOOOOOOOOOX++++++++",
"ooooooooXOOOOOOOOOOOOOOOOOOX++++++++",
"ooooooooXOOOOOOOOOOOOOOOOOOX++++++++",
"ooooooooXOOOOOOOOOOOOOOOOOOX++++++++",
"ooooooooXOOOOOOOOOOOOOOOOOOX++++++++",
"XXXXXXXXXXXXXXXXXXXXXXXXXXXXXXXXXXXX",
"                                    ",
"                     X     X        ",
"                     X     X        ",
"                     X     X        ",
"                     X     X        ",
"                     XXXXXXX        ",
"                     X     X        ",
"                     X     X        ",
"                     X     X        ",
"                     X     X        ",
"                                    ",
"XXXXXXXXXXXXXXXXXXXXXX     XXXXXXXXX",
"ooooooooXOOOOOOOOOOOOX     X++++++++",
"ooooooooXOOOOOOOOOOOOX     X++++++++",
"ooooooooXOOOOOOOOOOOOX     X++++++++",
"ooooooooXOOOOOOOOOOOOX     X++++++++",
"ooooooooXOOOOOOOOOOOOX     X++++++++",
"ooooooooXOOOOOOOOOOOOX     X++++++++",
"XXXXXXXXXXXXXXXXXXXXXX     XXXXXXXXX",
"                                    ",
"                                    "};
