/* XPM */
static char * move_beginning_back_adjust_xpm[] = {
"36 36 5 1",
" 	c None",
"X	c #000000000000",
"o	c #FFFF00000000",
"O	c #0000FFFF0000",
"+	c #00000000FFFF",
"                                    ",
"                                    ",
"                                    ",
"                                    ",
"                                    ",
"                                    ",
"                                    ",
"XXXXXXXXXXXXXXXXXXXXXXXXXXXXXXXXXXXX",
"oooooooooooXOOOOOOOOOOOOX+++++++++++",
"oooooooooooXOOOOOOOOOOOOX+++++++++++",
"oooooooooooXOOOOOOOOOOOOX+++++++++++",
"oooooooooooXOOOOOOOOOOOOX+++++++++++",
"oooooooooooXOOOOOOOOOOOOX+++++++++++",
"oooooooooooXOOOOOOOOOOOOX+++++++++++",
"XXXXXXXXXXXXXXXXXXXXXXXXXXXXXXXXXXXX",
"                                    ",
"     X     X                        ",
"     X     X                        ",
"     X     X                        ",
"     X     X                        ",
"     XXXXXXX                        ",
"     X     X                        ",
"     X     X                        ",
"     X     X                        ",
"     X     X                        ",
"                                    ",
"XXXXXXXXXXXXXXXXXXXXXXXXXXXXXXXXXXXX",
"oooooXOOOOOOOOOOOOOOOOOOX+++++++++++",
"oooooXOOOOOOOOOOOOOOOOOOX+++++++++++",
"oooooXOOOOOOOOOOOOOOOOOOX+++++++++++",
"oooooXOOOOOOOOOOOOOOOOOOX+++++++++++",
"oooooXOOOOOOOOOOOOOOOOOOX+++++++++++",
"oooooXOOOOOOOOOOOOOOOOOOX+++++++++++",
"XXXXXXXXXXXXXXXXXXXXXXXXXXXXXXXXXXXX",
"                                    ",
"                                    "};
