/* XPM */
static char * move_end_forward_adjust_xpm[] = {
"36 36 5 1",
" 	c None",
"X	c #000000000000",
"o	c #FFFF00000000",
"O	c #0000FFFF0000",
"+	c #00000000FFFF",
"                                    ",
"                                    ",
"                                    ",
"                                    ",
"                                    ",
"                                    ",
"                                    ",
"XXXXXXXXXXXXXXXXXXXXXXXXXXXXXXXXXXXX",
"ooooooooXOOOOOOOOOOOOOOOX+++++++++++",
"ooooooooXOOOOOOOOOOOOOOOX+++++++++++",
"ooooooooXOOOOOOOOOOOOOOOX+++++++++++",
"ooooooooXOOOOOOOOOOOOOOOX+++++++++++",
"ooooooooXOOOOOOOOOOOOOOOX+++++++++++",
"ooooooooXOOOOOOOOOOOOOOOX+++++++++++",
"XXXXXXXXXXXXXXXXXXXXXXXXXXXXXXXXXXXX",
"                                    ",
"                        X      X    ",
"                        X      X    ",
"                        X      X    ",
"                        X      X    ",
"                        XXXXXXXX    ",
"                        X      X    ",
"                        X      X    ",
"                        X      X    ",
"                        X      X    ",
"                                    ",
"XXXXXXXXXXXXXXXXXXXXXXXXXXXXXXXXXXXX",
"ooooooooXOOOOOOOOOOOOOOOOOOOOOOX++++",
"ooooooooXOOOOOOOOOOOOOOOOOOOOOOX++++",
"ooooooooXOOOOOOOOOOOOOOOOOOOOOOX++++",
"ooooooooXOOOOOOOOOOOOOOOOOOOOOOX++++",
"ooooooooXOOOOOOOOOOOOOOOOOOOOOOX++++",
"ooooooooXOOOOOOOOOOOOOOOOOOOOOOX++++",
"XXXXXXXXXXXXXXXXXXXXXXXXXXXXXXXXXXXX",
"                                    ",
"                                    "};
