/* XPM */
static char * move_end_here_adjust_xpm[] = {
"36 36 6 1",
" 	c None",
".	c #FFFF0000FFFF",
"X	c #000000000000",
"o	c #FFFF00000000",
"O	c #0000FFFF0000",
"+	c #00000000FFFF",
"             .......                ",
"              .....                 ",
"               ...                  ",
"               ...                  ",
"                .                   ",
"                .                   ",
"                .                   ",
"XXXXXXXXXXXXXXXXXXXXXXXXXXXXXXXXXXXX",
"ooooooooXOOOOOOOOOOOOOOOX+++++++++++",
"ooooooooXOOOOOOOOOOOOOOOX+++++++++++",
"ooooooooXOOOOOOOOOOOOOOOX+++++++++++",
"ooooooooXOOOOOOOOOOOOOOOX+++++++++++",
"ooooooooXOOOOOOOOOOOOOOOX+++++++++++",
"ooooooooXOOOOOOOOOOOOOOOX+++++++++++",
"XXXXXXXXXXXXXXXXXXXXXXXXXXXXXXXXXXXX",
"                .                   ",
"                .                   ",
"                .                   ",
"                .                   ",
"                .                   ",
"                .                   ",
"                .                   ",
"                .                   ",
"                .                   ",
"                .                   ",
"                .                   ",
"XXXXXXXXXXXXXXXXXXXXXXXXXXXXXXXXXXXX",
"ooooooooXOOOOOOOX+++++++++++++++++++",
"ooooooooXOOOOOOOX+++++++++++++++++++",
"ooooooooXOOOOOOOX+++++++++++++++++++",
"ooooooooXOOOOOOOX+++++++++++++++++++",
"ooooooooXOOOOOOOX+++++++++++++++++++",
"ooooooooXOOOOOOOX+++++++++++++++++++",
"XXXXXXXXXXXXXXXXXXXXXXXXXXXXXXXXXXXX",
"                .                   ",
"                .                   "};
