/* XPM */
static char * newset_preceding_xpm[] = {
"36 36 5 1",
" 	c None",
".	c #000000000000",
"X	c #FFFFFFFFFFFF",
"o	c #0000FFFF0000",
"O	c #FFFF0000FFFF",
"                                    ",
" .............        ............. ",
" .XXXXXXXXXXX.        .XXXXXXXXXXX. ",
" .XooXXXXXXXX.        .XooXXXXXXXX. ",
" .ooooXXXXXXX.        .ooooXXXXXXX. ",
" .oooo......X.        .oooo......X. ",
" .Xoo.......X.        .Xoo.......X. ",
" .XXXXXXXXXXX.        .XXXXXXXXXXX. ",
" .XXXXXXXXXXX.        .XXXXXXXXXXX. ",
" .XooXXXXXXXX.        .XooXXXXXXXX. ",
" .ooooXXXXXXX.        .ooooXXXXXXX. ",
" .oooo......X.        .oooo......X. ",
" .Xoo.......X. .      .Xoo.......X. ",
" .XXXXXXXXXXX. ..     .XXXXXXXXXXX. ",
" .XXXXXXXXXXX. ...    .XXXXXXXXXXX. ",
" .XOOXXXXXXXX. ....   .XOOXXXXXXXX. ",
" .OOOOXXXXXXX. .....  .OOOOXXXXXXX. ",
" .OOOO......X. ...... .OOOO......X. ",
" .XOO.......X. .....  .XOO.......X. ",
" .XXXXXXXXXXX. ....   .XXXXXXXXXXX. ",
" .XXXXXXXXXXX. ...    .XXXXXXXXXXX. ",
" .XooXXXXXXXX. ..     .XXXXXXXXXXX. ",
" .ooooXXXXXXX. .      .XXXXXXXXXXX. ",
" .oooo......X.        .XXXXXXXXXXX. ",
" .Xoo.......X.        .XXXXXXXXXXX. ",
" .XXXXXXXXXXX.        .XXXXXXXXXXX. ",
" .XXXXXXXXXXX.        .XXXXXXXXXXX. ",
" .XooXXXXXXXX.        .XXXXXXXXXXX. ",
" .ooooXXXXXXX.        .XXXXXXXXXXX. ",
" .oooo......X.        .XXXXXXXXXXX. ",
" .Xoo.......X.        .XXXXXXXXXXX. ",
" .XXXXXXXXXXX.        .XXXXXXXXXXX. ",
" .XXXXXXXXXXX.        .XXXXXXXXXXX. ",
" .XXXXXXXXXXX.        .XXXXXXXXXXX. ",
" .............        ............. ",
"                                    "};
