/* XPM */
static char * remove_track_xpm[] = {
"36 36 6 1",
" 	c None",
".	c #FFFF0000FFFF",
"X	c #FFFF00000000",
"o	c #000000000000",
"O	c #0000FFFF0000",
"+	c #00000000FFFF",
"             .......                ",
"         X    .....       X         ",
"        XXX    ...       XXX        ",
"       XXXXX   ...      XXXXX       ",
"        XXXXX   .      XXXXX        ",
"         XXXXX  .     XXXXX         ",
"          XXXXX .    XXXXX          ",
"oooooooooooXXXXXooooXXXXXooooooooooo",
"XXXXXXXXoOOOXXXXXOOXXXXXOOOo++++++++",
"XXXXXXXXoOOOOXXXXXXXXXXOOOOo++++++++",
"XXXXXXXXoOOOOOXXXXXXXXOOOOOo++++++++",
"XXXXXXXXoOOOOOOXXXXXXOOOOOOo++++++++",
"XXXXXXXXoOOOOOOXXXXXXOOOOOOo++++++++",
"XXXXXXXXoOOOOOXXXXXXXXOOOOOo++++++++",
"oooooooooooooXXXXXXXXXXooooooooooooo",
"            XXXXX  XXXXX            ",
"           XXXXX.   XXXXX           ",
"          XXXXX .    XXXXX          ",
"         XXXXX  .     XXXXX         ",
"        XXXXX   .      XXXXX        ",
"       XXXXX    .       XXXXX       ",
"        XXX     .        XXX        ",
"         X      .         X         ",
"                .                   ",
"                .                   ",
"                .                   ",
"ooooooooo       .          ooooooooo",
"XXXXXXXXo       .          o++++++++",
"XXXXXXXXo       .          o++++++++",
"XXXXXXXXo       .          o++++++++",
"XXXXXXXXo       .          o++++++++",
"XXXXXXXXo       .          o++++++++",
"XXXXXXXXo       .          o++++++++",
"ooooooooo       .          ooooooooo",
"                .                   ",
"                .                   "};
