/* XPM */
static char * removeset_xpm[] = {
"36 36 6 1",
" 	c None",
".	c #000000000000",
"X	c #FFFFFFFFFFFF",
"o	c #FFFF00000000",
"O	c #0000FFFF0000",
"+	c #FFFF0000FFFF",
"                                    ",
"          ..............            ",
"          .XXXXXXXXXXXX.            ",
"       o  .XOOXXXXXXXXX.  o         ",
"      ooo .OOOOXXXXXXXX. ooo        ",
"     ooooo.OOOO.......X.ooooo       ",
"    ooooooo OO........Xooooooo      ",
"   oooooooooXXXXXXXXXXooooooooo     ",
"    oooooooooXXXXXXXXooooooooo      ",
"     oooooooooXXXXXXooooooooo       ",
"      oooooooooXXXXooooooooo        ",
"       ooooooooo..ooooooooo         ",
"        oooooooooooooooooo          ",
"         oooooooooooooooo           ",
"          oooooooooooooo            ",
"          .oooooooooooo.            ",
"          .+ooooooooooX.            ",
"          .+ooooooooooX.            ",
"          .oooooooooooo.            ",
"          oooooooooooooo            ",
"         oooooooooooooooo           ",
"        oooooooooooooooooo          ",
"       oooooooooXXooooooooo         ",
"      ooooooooo....ooooooooo        ",
"     ooooooooo......ooooooooo       ",
"    oooooooooXXXXXXXXooooooooo      ",
"   oooooooooXXXXXXXXXXooooooooo     ",
"    oooooooXOOXXXXXXXXXooooooo      ",
"     ooooo.OOOOXXXXXXXX.ooooo       ",
"      ooo .OOOO.......X. ooo        ",
"       o  .XOO........X.  o         ",
"          .XXXXXXXXXXXX.            ",
"          .XXXXXXXXXXXX.            ",
"          .XXXXXXXXXXXX.            ",
"          ..............            ",
"                                    "};
