/* XPM */
static char * split_track_xpm[] = {
"36 36 6 1",
" 	c None",
".	c #FFFF0000FFFF",
"X	c #000000000000",
"o	c #0000FFFF0000",
"O	c #FFFF00000000",
"+	c #00000000FFFF",
"             .......                ",
"              .....                 ",
"               ...                  ",
"               ...                  ",
"                .                   ",
"                .                   ",
"                .                   ",
"XXXXXXXXXXXXXXXXXXXXXXXXXXXXXXXXXXXX",
"oooooooooooooooooooooooooooooooooooo",
"oooooooooooooooooooooooooooooooooooo",
"oooooooooooooooooooooooooooooooooooo",
"oooooooooooooooooooooooooooooooooooo",
"oooooooooooooooooooooooooooooooooooo",
"oooooooooooooooooooooooooooooooooooo",
"XXXXXXXXXXXXXXXXXXXXXXXXXXXXXXXXXXXX",
"                .                   ",
"                .                   ",
"                .                   ",
"                .                   ",
"                .                   ",
"                .                   ",
"                .                   ",
"                .                   ",
"                .                   ",
"                .                   ",
"                .                   ",
"XXXXXXXXXXXXXXXXXXXXXXXXXXXXXXXXXXXX",
"OOOOOOOOOOOOOOOOX+++++++++++++++++++",
"OOOOOOOOOOOOOOOOX+++++++++++++++++++",
"OOOOOOOOOOOOOOOOX+++++++++++++++++++",
"OOOOOOOOOOOOOOOOX+++++++++++++++++++",
"OOOOOOOOOOOOOOOOX+++++++++++++++++++",
"OOOOOOOOOOOOOOOOX+++++++++++++++++++",
"XXXXXXXXXXXXXXXXXXXXXXXXXXXXXXXXXXXX",
"                .                   ",
"                .                   "};
